<svg xmlns="http://www.w3.org/2000/svg" xmlns:xlink="http://www.w3.org/1999/xlink" width="510.138" height="563.419" viewBox="0 0 510.138 563.419">
  <defs>
    <radialGradient id="radial-gradient" cx="0.702" cy="0.31" r="0.764" gradientTransform="matrix(0, -1, -0.912, 0, 0.985, 1.012)" gradientUnits="objectBoundingBox">
      <stop offset="0" stop-color="#85b734"/>
      <stop offset="1" stop-color="#169148"/>
    </radialGradient>
  </defs>
  <g id="clear_logo" data-name="clear logo" transform="translate(-301.441 -207.457)" opacity="0.998">
    <path id="Контур_1" data-name="Контур 1" d="M570.07,207.21l61.611,129.216c-77.55,43.395-153.1,120.33-177.179,170.455C621.9,364.034,712.57,348.888,811.461,338.7L702.3,500.875l57.038,154.072L557.872,563.091c29.3-52,149.468-151.527,149.468-151.527C621.109,445.131,495.432,544.392,388.4,672.688c0,0,3.081-100.639,26.79-178.289L301.323,452.764l149.861-59.491S491.986,277.824,570.07,207.21Z" transform="translate(0.117 0.247)" fill="url(#radial-gradient)"/>
    <path id="Контур_2" data-name="Контур 2" d="M461.64,409.349l10.393,6.61c-6.916,21.962,0,37.046,0,37.046,8.852-.3,20.128-25.889,20.128-25.889l10.233,4.824c-28.4,87.115-13.519,107.452,15.6,157.441l-24.186.683H459.321c-39.071-.019-52.61-8.875-52.61-8.875,40.432-21.315,41.35-43.124,41.35-43.124V499.837S408,471.955,400.091,422.374l13.84-13.025c8.881,42.486,46.819,60.389,46.819,60.389C452.336,432.162,461.64,409.349,461.64,409.349Z" transform="translate(88.35 180.812)" fill="#169148"/>
  </g>
</svg>
