<svg viewBox="0 0 21 21" version="1.1" xmlns="http://www.w3.org/2000/svg" xmlns:xlink="http://www.w3.org/1999/xlink">
    <path xmlns="http://www.w3.org/2000/svg" d="M0,10.2259933 C0,4.57823787 4.57846596,0 10.2262214,0 C15.8739769,0 20.4522148,4.57823787 20.4522148,10.2259933 C20.4522148,15.8737488 15.8739769,20.4522148 10.2262214,20.4522148 C4.57846596,20.4522148 0,15.8737488 0,10.2259933" fill="#2CA01C"/>
    <path xmlns="http://www.w3.org/2000/svg" d="M13.7962203,6.72705321 L13.2282743,6.72705321 L13.2282743,8.20416901 L13.7962203,8.20416901 C15.1745728,8.20416901 16.2960951,9.32546322 16.2960951,10.7040438 C16.2960951,12.0823963 15.1745728,13.2036905 13.7962203,13.2036905 L12.431097,13.2036905 L12.431097,5.4773439 C12.431097,4.66146322 11.7696338,4 10.9539812,4 L10.9539812,14.6805782 L13.7962203,14.6805782 C15.9927344,14.6805782 17.7732109,12.9001017 17.7732109,10.7040438 C17.7732109,8.50752973 15.9927344,6.72705321 13.7962203,6.72705321 M3,10.7033595 C3,12.8996455 4.78070462,14.679894 6.97699061,14.679894 L7.54493662,14.679894 L7.54493662,13.2030063 L6.97699061,13.2030063 C5.59863811,13.2030063 4.4773439,12.0817121 4.4773439,10.7033595 C4.4773439,9.32500704 5.59863811,8.20348474 6.97699061,8.20348474 L8.34211385,8.20348474 L8.34211385,15.9300595 C8.34211385,16.7457121 9.00334898,17.4069472 9.81900156,17.4069472 L9.81900156,6.72659703 L6.97699061,6.72659703 C4.78070462,6.72659703 3,8.50707355 3,10.7033595" fill="#FFFFFF"/>
</svg>