<svg id="discover-light" viewBox="0 16.6 100 66.8" width="100%" height="100%">
	<g>
		<path fill="#EBEDED" d="M99.9,76.6c0,3.7-3,6.7-6.7,6.7H6.7c-3.7,0-6.7-3-6.7-6.7V23.3c0-3.7,3-6.7,6.7-6.7h86.6
			c3.7,0,6.7,3,6.7,6.7L99.9,76.6L99.9,76.6z"></path>
			<path fill="#E57E25" d="M93.4,83.2c3.7,0,6.5-2.6,6.5-6.3V57.2c0,0-25.6,18.1-72.8,26H93.4z"></path>
			<path opacity="0.1" fill="#231F20" enable-background="new    " d="M100,57.2c0,0-25.7,18.3-72.9,26.2C83.4,83.4,100,57.2,100,57.2z"></path>
			<g>
				<path fill="#231F20" d="M10.7,36.7h-4v13.9h4c2.1,0,3.6-0.5,5-1.6c1.6-1.3,2.5-3.3,2.5-5.4C18.1,39.5,15.1,36.7,10.7,36.7zM13.8,47.1c-0.9,0.8-2,1.1-3.7,1.1H9.4V39h0.7c1.8,0,2.8,0.3,3.7,1.1s1.5,2.1,1.5,3.5C15.3,45,14.8,46.3,13.8,47.1z"></path>
				<rect x="19.4" y="36.7" fill="#231F20" width="2.7" height="13.9"></rect>
				<path fill="#231F20" d="M28.8,42c-1.6-0.6-2.1-1-2.1-1.8c0-0.9,0.9-1.5,2-1.5c0.8,0,1.5,0.3,2.2,1.1l1.4-1.9
					c-1.2-1-2.6-1.5-4.1-1.5c-2.5,0-4.3,1.7-4.3,4c0,1.9,0.9,2.9,3.4,3.8c1.1,0.4,1.6,0.6,1.9,0.8c0.5,0.4,0.8,0.9,0.8,1.4c0,1.1-0.9,2-2.1,2c-1.3,0-2.3-0.6-3-1.9l-1.8,1.7c1.3,1.8,2.8,2.7,4.8,2.7c2.8,0,4.8-1.9,4.8-4.6C32.8,44.2,31.9,43.1,28.8,42z"></path>
					<path fill="#231F20" d="M33.6,43.6c0,4.1,3.2,7.3,7.4,7.3c1.2,0,2.2-0.2,3.4-0.8v-3.2c-1.1,1.1-2.1,1.5-3.3,1.5c-2.7,0-4.7-2-4.7-4.8c0-2.7,2-4.8,4.6-4.8c1.3,0,2.3,0.5,3.4,1.6v-3.2c-1.2-0.6-2.2-0.9-3.3-0.9C36.9,36.3,33.6,39.6,33.6,43.6z"></path>
					<polygon fill="#231F20" points="66,46 62.3,36.7 59.3,36.7 65.2,51 66.7,51 72.7,36.7 69.8,36.7"></polygon>
					<polygon fill="#231F20" points="73.9,50.6 81.6,50.6 81.6,48.2 76.6,48.2 76.6,44.5 81.5,44.5 81.5,42.1 76.6,42.1 76.6,39 81.6,39 81.6,36.7 73.9,36.7"></polygon>
					<path fill="#231F20" d="M92.4,40.8c0-2.6-1.8-4.1-4.9-4.1h-4v13.9h2.7V45h0.4l3.8,5.6h3.3l-4.4-5.9C91.3,44.3,92.4,42.9,92.4,40.8z M87,43.1h-0.8v-4.2H87c1.7,0,2.6,0.7,2.6,2.1C89.6,42.3,88.7,43.1,87,43.1z"></path>
					<circle fill="#E57E25" cx="52.7" cy="43.7" r="7.4"></circle>
				</g>
			</g>
</svg>
